<svg width="37" height="29" viewBox="0 0 37 29" fill="none" xmlns="http://www.w3.org/2000/svg">
<path d="M9.91151 16.1552C8.42099 16.1552 7.12921 16.7514 6.2349 17.5464C6.03616 16.8508 6.03616 16.1552 6.03616 15.559C6.03616 9.99442 9.3153 5.32413 14.5818 2.74056L13.3894 0.256356C6.43363 3.03866 0.670292 9.29884 0.670292 17.6457C0.670292 24.3034 4.54564 28.0794 9.11657 28.0794C13.1907 28.0794 15.3767 25.0983 15.3767 21.9186C15.3767 18.6394 13.1907 16.1552 9.91151 16.1552ZM30.7788 16.1552C29.2883 16.1552 27.9965 16.7514 27.1022 17.5464C26.9034 16.8508 26.9034 16.1552 26.9034 15.559C26.9034 9.99442 30.1826 5.32413 35.4491 2.74056L34.2567 0.256356C27.3009 3.03866 21.5376 9.29884 21.5376 17.6457C21.5376 24.3034 25.4129 28.0794 29.9838 28.0794C34.0579 28.0794 36.244 25.0983 36.244 21.9186C36.244 18.6394 34.0579 16.1552 30.7788 16.1552Z" fill="#F5B452"/>
</svg>
